<?xml version="1.0" encoding="utf-8"?>
<!-- Generator: Adobe Illustrator 26.0.0, SVG Export Plug-In . SVG Version: 6.00 Build 0)  -->
<svg version="1.1" id="Calque_1" xmlns="http://www.w3.org/2000/svg" xmlns:xlink="http://www.w3.org/1999/xlink" x="0px" y="0px"
	 viewBox="0 0 48 48" style="enable-background:new 0 0 48 48;" xml:space="preserve">
<style type="text/css">
	.st0{display:none;}
	.st1{display:inline;fill:#67AB55;}
	.st2{display:inline;}
	.st3{fill:#1E1E1E;}
	.st4{display:inline;fill:#78B24C;}
	.st5{display:inline;fill:#88B843;}
	.st6{display:inline;fill:#9ABF3A;}
	.st7{display:inline;fill:#ABC530;}
	.st8{display:inline;fill:#BBCD2A;}
	.st9{display:inline;fill:#CCD220;}
	.st10{display:inline;fill:#DDD915;}
	.st11{display:inline;fill:#EEDF05;}
	.st12{fill:#FFE606;}
</style>
<g id="Calque_3" class="st0">
	<path class="st1" d="M26.1,2.6l5.6,11.4c0.3,0.7,1,1.1,1.7,1.3L46,17.1c1.9,0.3,2.6,2.6,1.3,3.9l-9.1,8.9c-0.5,0.5-0.8,1.3-0.7,2
		l2.2,12.6c0.3,1.9-1.7,3.3-3.3,2.4L25.1,41c-0.7-0.3-1.5-0.3-2.1,0L11.7,47C10,47.8,8,46.4,8.3,44.5L10.5,32c0.1-0.7-0.1-1.5-0.7-2
		L0.7,21c-1.4-1.3-0.6-3.6,1.3-3.9l12.6-1.8c0.8-0.1,1.4-0.6,1.7-1.3l5.6-11.4C22.8,0.9,25.2,0.9,26.1,2.6z"/>
	<g class="st2">
		<path class="st3" d="M18.6,32.6h-2.2c0.1-1.8,0.1-3.7,0.1-5.6c0-2.2,0-3.9-0.1-5l-2.9,1.5L13,22.4l4.6-3.4h1.1
			c-0.1,2.8-0.1,5.4-0.1,8C18.5,28.8,18.6,30.6,18.6,32.6z"/>
		<path class="st3" d="M34,25.7c0,2-0.5,3.8-1.5,5.1c-1,1.4-2.4,2.1-4.3,2.1c-1.8,0-3.1-0.6-4.1-1.9c-0.9-1.3-1.4-2.9-1.4-4.8
			c0-2,0.5-3.8,1.5-5.1s2.4-2.1,4.3-2.1c1.8,0,3.1,0.6,4.1,1.9C33.5,22.1,34,23.7,34,25.7z M31.9,26.2c0-1.7-0.3-3-1-4
			s-1.5-1.5-2.6-1.5c-1.1,0-1.9,0.5-2.5,1.4c-0.6,1-0.9,2.1-0.9,3.6c0,1.7,0.3,3,1,4s1.5,1.5,2.6,1.5c1,0,1.8-0.4,2.4-1.3
			C31.5,29,31.9,27.8,31.9,26.2z"/>
	</g>
</g>
<g id="Calque_4" class="st0">
	<path class="st4" d="M26,3.4l5.4,11c0.3,0.6,0.9,1.1,1.7,1.2l12.1,1.8c1.8,0.3,2.5,2.5,1.2,3.8l-8.8,8.6c-0.5,0.5-0.8,1.2-0.6,2
		l2.1,12.1c0.3,1.8-1.6,3.2-3.2,2.3L25,40.4c-0.6-0.3-1.4-0.3-2.1,0l-10.9,5.7c-1.6,0.8-3.5-0.5-3.2-2.3L11,31.7
		c0.1-0.7-0.1-1.5-0.6-2l-8.8-8.6c-1.3-1.3-0.6-3.5,1.2-3.8l12.1-1.8c0.7-0.1,1.3-0.6,1.7-1.2l5.4-11C22.8,1.8,25.2,1.8,26,3.4z"/>
	<g class="st2">
		<path class="st3" d="M29.8,23.3c0,7-3,10.7-8.9,11l-0.4-1.5c4.5-0.3,6.8-2.9,7.1-7.8h-0.1c-0.8,1.2-2.1,1.8-3.9,1.8
			c-1.5,0-2.6-0.5-3.4-1.5c-0.8-1-1.2-2.2-1.2-3.6c0-1.5,0.5-2.8,1.4-3.9s2.3-1.6,4-1.6c1.5,0,2.8,0.6,3.9,1.8
			C29.2,19.2,29.8,21,29.8,23.3z M27.6,23.6c0-1.9-0.4-3.3-1-4.2c-0.7-1-1.5-1.4-2.5-1.4c-1,0-1.7,0.3-2.3,1S21,20.4,21,21.4
			c0,1,0.3,2,1,2.7c0.7,0.8,1.6,1.2,2.7,1.2C26,25.3,27,24.7,27.6,23.6z"/>
	</g>
</g>
<g id="Calque_5" class="st0">
	<path class="st5" d="M25.9,4.6L31,15c0.3,0.6,0.9,1,1.6,1.1L44,17.8c1.7,0.2,2.4,2.4,1.2,3.6l-8.3,8.1c-0.5,0.5-0.7,1.2-0.6,1.9
		l2,11.4c0.3,1.7-1.5,3-3,2.2L25,39.5c-0.6-0.3-1.3-0.3-1.9,0l-10.3,5.4c-1.5,0.8-3.3-0.5-3-2.2l2-11.4c0.1-0.7-0.1-1.4-0.6-1.9
		l-8.3-8.1C1.6,20.1,2.2,18,4,17.8l11.5-1.7c0.7-0.1,1.3-0.5,1.6-1.1l5.1-10.4C22.9,3,25.1,3,25.9,4.6z"/>
	<g class="st2">
		<path class="st3" d="M29.5,28c0,1.4-0.5,2.5-1.5,3.3c-1,0.8-2.3,1.2-3.7,1.2c-1.4,0-2.6-0.4-3.6-1.1c-1-0.8-1.5-1.8-1.5-3.2
			c0-0.9,0.3-1.7,0.9-2.5s1.4-1.4,2.5-1.8v-0.1c-1.6-1-2.4-2.2-2.4-3.6c0-1.2,0.4-2.1,1.3-2.7s1.9-1,3-1c1.1,0,2.1,0.3,3,0.9
			c0.8,0.6,1.3,1.4,1.3,2.5c0,0.7-0.2,1.4-0.7,2.1s-1.1,1.1-1.9,1.5v0.1C28.4,24.8,29.5,26.3,29.5,28z M27.5,28.3
			c0-1.5-1.2-2.8-3.6-3.9c-0.8,0.3-1.5,0.8-2.1,1.4s-0.8,1.4-0.8,2.1c0,1,0.3,1.8,1,2.3c0.7,0.6,1.4,0.8,2.3,0.8
			c0.9,0,1.6-0.2,2.2-0.7C27.2,29.8,27.5,29.1,27.5,28.3z M26.8,20.1c0-0.8-0.2-1.3-0.7-1.7c-0.5-0.4-1.1-0.6-1.7-0.6
			c-0.6,0-1.2,0.2-1.7,0.5s-0.7,0.8-0.7,1.4c0,1.2,0.9,2.3,2.8,3.2C26.1,22.3,26.8,21.4,26.8,20.1z"/>
	</g>
</g>
<g id="Calque_6" class="st0">
	<path class="st6" d="M25.8,5.5l4.9,9.9c0.3,0.6,0.9,1,1.5,1.1l10.9,1.6c1.6,0.2,2.3,2.2,1.1,3.4l-7.9,7.7c-0.5,0.5-0.7,1.1-0.6,1.8
		l1.9,10.9c0.3,1.6-1.4,2.9-2.9,2.1l-9.8-5.1c-0.6-0.3-1.3-0.3-1.9,0l-9.8,5.1c-1.5,0.8-3.2-0.5-2.9-2.1l1.9-10.9
		c0.1-0.6-0.1-1.3-0.6-1.8l-7.9-7.7c-1.2-1.1-0.5-3.2,1.1-3.4l10.9-1.6c0.6-0.1,1.2-0.5,1.5-1.1l4.9-9.9C23,4,25,4,25.8,5.5z"/>
	<g class="st2">
		<path class="st3" d="M28.5,18c0,1.4-0.5,3.2-1.6,5.6c-0.4,1-1.4,3-3,5.9c-1.1,2-1.6,3.3-1.6,3.8l-2-0.2c0-0.5,0.6-1.7,1.7-3.6
			c1.9-3.4,3-5.2,3.1-5.5c1.1-2.1,1.7-3.6,1.7-4.5c-1.6,0-4,0.1-7.2,0.3l0.1-1.8L28.5,18L28.5,18z"/>
	</g>
</g>
<g id="Calque_7" class="st0">
	<path class="st7" d="M25.7,6.7l4.6,9.3c0.3,0.5,0.8,0.9,1.4,1l10.2,1.5c1.5,0.2,2.1,2.1,1,3.2l-7.4,7.2c-0.4,0.4-0.6,1-0.5,1.6
		l1.8,10.2c0.3,1.5-1.3,2.7-2.7,2l-9.1-4.8c-0.5-0.3-1.2-0.3-1.7,0L14,42.7c-1.4,0.7-3-0.4-2.7-2L13,30.5c0.1-0.6-0.1-1.2-0.5-1.6
		l-7.4-7.2c-1.1-1.1-0.5-3,1-3.2L16.4,17c0.6-0.1,1.1-0.5,1.4-1l4.6-9.3C23,5.3,25,5.3,25.7,6.7z"/>
	<g class="st2">
		<path class="st3" d="M28.9,27.2c0,1.2-0.4,2.3-1.2,3.2s-2,1.4-3.4,1.4c-1.3,0-2.3-0.5-3.2-1.5s-1.3-2.4-1.3-4.3
			c0-5.5,2.4-8.3,7.2-8.6l0.1,1.2c-1.8,0.2-3.2,0.7-4,1.6c-0.9,0.9-1.4,2.2-1.5,4h0.1c0.7-0.9,1.8-1.4,3.3-1.4
			c1.2,0,2.2,0.4,2.9,1.3C28.6,25.1,28.9,26.1,28.9,27.2z M27.1,27.5c0-0.9-0.3-1.6-0.8-2.3c-0.5-0.6-1.3-1-2.4-1
			c-1,0-1.8,0.4-2.4,1.2c0,1.8,0.3,3,0.8,3.8s1.2,1.2,2,1.2c0.9,0,1.5-0.3,2-0.9C26.9,29.1,27.1,28.4,27.1,27.5z"/>
	</g>
</g>
<g id="Calque_8" class="st0">
	<path class="st8" d="M25.5,8l4.2,8.6c0.2,0.5,0.7,0.9,1.3,0.9l9.5,1.4c1.4,0.2,2,2,1,2.9l-6.9,6.7c-0.4,0.4-0.6,1-0.5,1.5l1.6,9.5
		c0.2,1.4-1.2,2.5-2.5,1.8l-8.5-4.5c-0.5-0.3-1.1-0.3-1.6,0l-8.5,4.5c-1.3,0.7-2.8-0.4-2.5-1.8l1.6-9.5c0.1-0.6-0.1-1.1-0.5-1.5
		l-6.9-6.7c-1-1-0.5-2.7,1-2.9l9.5-1.4c0.6-0.1,1-0.4,1.3-0.9L22.4,8C23.1,6.7,24.9,6.7,25.5,8z"/>
	<g class="st2">
		<path class="st3" d="M27.4,27.6c0,1.3-0.6,2.5-1.9,3.5c-1.3,1-3,1.6-5.2,1.7L20,31.6c1.8-0.1,3.1-0.5,4.1-1.1s1.5-1.5,1.5-2.5
			c0-1.1-0.4-1.8-1.2-2.3s-2.3-0.6-4.4-0.6c0.4-2.9,0.5-4.9,0.5-6h5.9l-0.1,1.5c-1.3-0.2-2.9-0.3-4.6-0.3c-0.2,1.2-0.3,2.4-0.3,3.4
			c2,0,3.4,0.3,4.4,0.9C26.9,25.3,27.4,26.2,27.4,27.6z"/>
	</g>
</g>
<g id="Calque_9" class="st0">
	<path class="st9" d="M25.4,9.2l3.9,8c0.2,0.5,0.7,0.8,1.2,0.9l8.8,1.3c1.3,0.2,1.8,1.8,0.9,2.7l-6.4,6.2c-0.4,0.4-0.5,0.9-0.5,1.4
		l1.5,8.8c0.2,1.3-1.2,2.3-2.3,1.7L24.7,36c-0.5-0.2-1-0.2-1.5,0l-7.9,4.1c-1.2,0.6-2.5-0.4-2.3-1.7l1.5-8.8c0.1-0.5-0.1-1-0.5-1.4
		L7.8,22c-0.9-0.9-0.4-2.5,0.9-2.7l8.8-1.3c0.5-0.1,1-0.4,1.2-0.9l3.9-8C23.1,8,24.9,8,25.4,9.2z"/>
	<g class="st2">
		<path class="st3" d="M28.1,26.1L28,27.5h-1.5c0,1.1,0,2.5,0.1,4.3H25c0-1.5,0.1-3,0.1-4.3h-5l-0.2-1.1c0-0.1,0.8-1.3,2.4-3.5
			s2.4-3.3,2.4-3.4h1.9c-0.1,1.3-0.1,3.6-0.1,6.7C27,26.2,27.5,26.2,28.1,26.1z M25.2,20.7L25.2,20.7c-0.1,0.2-0.7,1.1-2,2.8
			c-1.3,1.7-1.9,2.6-1.9,2.7v0.1c1,0,2.3,0,3.8-0.1C25.1,24.4,25.1,22.5,25.2,20.7z"/>
	</g>
</g>
<g id="Calque_10" class="st0">
	<path class="st10" d="M25.3,10.6l3.6,7.2c0.2,0.4,0.6,0.7,1.1,0.8l8,1.2c1.2,0.2,1.7,1.6,0.8,2.5l-5.8,5.6
		c-0.3,0.3-0.5,0.8-0.4,1.3l1.4,7.9c0.2,1.2-1,2.1-2.1,1.5l-7.1-3.8c-0.4-0.2-0.9-0.2-1.4,0l-7.1,3.8c-1.1,0.6-2.3-0.3-2.1-1.5
		l1.4-7.9c0.1-0.5-0.1-1-0.4-1.3l-5.8-5.6c-0.9-0.8-0.4-2.3,0.8-2.5l8-1.2c0.5-0.1,0.9-0.4,1.1-0.8l3.6-7.2
		C23.2,9.5,24.8,9.5,25.3,10.6z"/>
	<g class="st2">
		<path class="st3" d="M26.7,27.2c0,1.1-0.5,2.1-1.6,3c-1.1,0.9-2.7,1.4-4.7,1.5l-0.2-1c1.6-0.1,2.9-0.4,3.8-1
			c0.9-0.5,1.4-1.3,1.4-2.2c0-0.8-0.3-1.4-1-1.8s-1.7-0.5-3-0.5l0.2-1c1,0,1.9-0.2,2.6-0.5s1-0.8,1-1.3c0-0.5-0.2-0.9-0.6-1.1
			c-0.4-0.2-1.1-0.3-2-0.3c-0.7,0-1.2,0.1-1.7,0.2l0.1-1.1c0.5-0.1,1.3-0.2,2.3-0.2c1,0,1.7,0.2,2.3,0.6c0.5,0.4,0.8,0.9,0.8,1.5
			c0,1.2-0.6,2-1.9,2.4v0.1c0.7,0.1,1.2,0.4,1.7,0.9C26.5,25.9,26.7,26.5,26.7,27.2z"/>
	</g>
</g>
<g id="Calque_11" class="st0">
	<path class="st11" d="M25.2,12.1l3.2,6.4c0.2,0.4,0.5,0.6,1,0.7l7.1,1c1.1,0.1,1.5,1.5,0.7,2.2l-5.2,5c-0.3,0.3-0.4,0.7-0.4,1.1
		l1.2,7.1c0.2,1.1-0.9,1.9-1.9,1.4l-6.4-3.3c-0.4-0.2-0.8-0.2-1.2,0L17,37.1c-1,0.5-2.1-0.3-1.9-1.4l1.2-7.1
		c0.1-0.4-0.1-0.9-0.4-1.1l-5.2-5c-0.8-0.8-0.3-2,0.7-2.2l7.1-1c0.4-0.1,0.8-0.3,1-0.7l3.2-6.4C23.3,11.1,24.7,11.1,25.2,12.1z"/>
	<g class="st2">
		<path class="st3" d="M26.9,27.7l-0.1,1h-5.2l0.1-1c1.2-0.9,2.1-1.6,2.6-2.1s0.8-1.2,0.8-2c0-1-0.7-1.5-2-1.5c-0.6,0-1,0-1.4,0.1
			l0.1-1c0.4-0.1,0.8-0.1,1.4-0.1c1.1,0,1.9,0.2,2.4,0.6c0.5,0.4,0.8,1,0.8,1.6c0,0.9-0.3,1.7-1,2.5c-0.7,0.7-1.5,1.4-2.5,2v0.1
			C24.2,27.8,25.5,27.8,26.9,27.7z"/>
	</g>
</g>
<g id="Calque_1_00000084488301126849651980000015421800509869773739_">
	<path class="st12" d="M25.7,6.5l4.7,9.5c0.3,0.6,0.8,0.9,1.4,1l10.4,1.5c1.6,0.2,2.2,2.1,1.1,3.2l-7.6,7.4
		c-0.4,0.4-0.7,1.1-0.5,1.7l1.8,10.4c0.3,1.6-1.4,2.7-2.8,2l-9.3-4.9c-0.6-0.3-1.2-0.3-1.8,0l-9.3,4.9c-1.4,0.7-3-0.4-2.8-2
		l1.8-10.4c0.1-0.6-0.1-1.2-0.5-1.7l-7.6-7.4c-1.1-1.1-0.5-3,1.1-3.2L16.1,17c0.6-0.1,1.2-0.5,1.4-1l4.7-9.5C23,5.1,25,5.1,25.7,6.5
		z"/>
	<g>
		<path class="st3" d="M28.4,24.2c0,1.6-0.4,3-1.2,4.1c-0.8,1.1-1.9,1.6-3.4,1.6c-1.4,0-2.5-0.5-3.2-1.5c-0.8-1-1.1-2.3-1.1-3.8
			c0-1.6,0.4-3,1.2-4.1c0.8-1.1,1.9-1.6,3.4-1.6c1.4,0,2.5,0.5,3.2,1.5C28.1,21.4,28.4,22.7,28.4,24.2z M26.7,24.6
			c0-1.3-0.3-2.4-0.8-3.2s-1.2-1.2-2.1-1.2c-0.9,0-1.5,0.4-2,1.1c-0.5,0.8-0.7,1.7-0.7,2.8c0,1.3,0.3,2.4,0.8,3.2
			c0.5,0.8,1.2,1.2,2.1,1.2c0.8,0,1.4-0.4,1.9-1.1C26.5,26.8,26.7,25.9,26.7,24.6z"/>
	</g>
</g>
</svg>
