<?xml version="1.0" encoding="utf-8"?>
<!-- Generator: Adobe Illustrator 26.0.0, SVG Export Plug-In . SVG Version: 6.00 Build 0)  -->
<svg version="1.1" xmlns="http://www.w3.org/2000/svg" xmlns:xlink="http://www.w3.org/1999/xlink" x="0px" y="0px"
	 viewBox="0 0 48 48" style="enable-background:new 0 0 48 48;" xml:space="preserve">
<style type="text/css">
	.st0{display:none;}
	.st1{display:inline;fill:#67AB55;}
	.st2{display:inline;fill:#FFFFFF;}
	.st3{font-family:'Candara';}
	.st4{font-size:26.1433px;}
	.st5{fill:#78B24C;}
	.st6{fill:#1E1E1E;}
	.st7{display:inline;fill:#88B843;}
	.st8{display:inline;}
	.st9{display:inline;fill:#9ABF3A;}
	.st10{display:inline;fill:#ABC530;}
	.st11{display:inline;fill:#BBCD2A;}
	.st12{display:inline;fill:#CCD220;}
	.st13{display:inline;fill:#DDD915;}
	.st14{display:inline;fill:#EEDF05;}
	.st15{display:inline;fill:#FFE606;}
</style>
<g id="Calque_3" class="st0">
	<path class="st1" d="M26.06,2.62l5.64,11.43c0.33,0.68,0.98,1.15,1.73,1.26l12.61,1.83c1.88,0.27,2.63,2.59,1.27,3.91l-9.12,8.89
		c-0.54,0.53-0.79,1.29-0.66,2.03l2.15,12.56c0.32,1.87-1.65,3.3-3.33,2.42l-11.28-5.93c-0.67-0.35-1.47-0.35-2.14,0l-11.28,5.93
		C9.97,47.84,8,46.41,8.33,44.53l2.15-12.56c0.13-0.74-0.12-1.5-0.66-2.03L0.7,21.05c-1.36-1.33-0.61-3.64,1.27-3.91l12.61-1.83
		c0.75-0.11,1.39-0.58,1.73-1.26l5.64-11.43C22.78,0.92,25.22,0.92,26.06,2.62z"/>
	<text transform="matrix(1 0 0 1 12.0586 32.5557)" class="st2 st3 st4">10</text>
</g>
<g id="Calque_4">
	<path class="st5" d="M25.98,3.43l5.43,11c0.32,0.65,0.94,1.1,1.66,1.21l12.14,1.76c1.81,0.26,2.54,2.49,1.22,3.77l-8.78,8.56
		c-0.52,0.51-0.76,1.24-0.64,1.96l2.07,12.09c0.31,1.8-1.58,3.18-3.21,2.33L25.03,40.4c-0.64-0.34-1.41-0.34-2.06,0l-10.86,5.71
		c-1.62,0.85-3.51-0.52-3.21-2.33l2.07-12.09c0.12-0.72-0.11-1.45-0.64-1.96l-8.78-8.56c-1.31-1.28-0.59-3.5,1.22-3.77l12.14-1.76
		c0.72-0.1,1.34-0.56,1.66-1.21l5.43-11C22.83,1.79,25.17,1.79,25.98,3.43z"/>
	<g>
		<path class="st6" d="M29.75,23.29c0,7-2.97,10.67-8.91,11.02l-0.36-1.46c4.47-0.3,6.83-2.89,7.1-7.75h-0.12
			c-0.82,1.17-2.13,1.76-3.92,1.76c-1.45,0-2.59-0.5-3.41-1.51c-0.82-1-1.24-2.2-1.24-3.58c0-1.48,0.47-2.77,1.42-3.87
			s2.28-1.64,3.99-1.64c1.51,0,2.79,0.59,3.85,1.78C29.22,19.22,29.75,20.97,29.75,23.29z M27.61,23.57c0-1.88-0.35-3.29-1.04-4.23
			c-0.7-0.95-1.52-1.42-2.47-1.42c-0.96,0-1.71,0.34-2.26,1.02s-0.82,1.5-0.82,2.45c0,1.04,0.33,1.95,0.98,2.73
			c0.66,0.78,1.57,1.17,2.74,1.17C25.99,25.28,26.95,24.71,27.61,23.57z"/>
	</g>
</g>
<g id="Calque_5" class="st0">
	<path class="st7" d="M25.87,4.58L31,14.97c0.3,0.62,0.89,1.04,1.57,1.14l11.47,1.67c1.71,0.25,2.4,2.35,1.16,3.56l-8.3,8.09
		c-0.49,0.48-0.72,1.17-0.6,1.85l1.96,11.42c0.29,1.7-1.5,3.01-3.03,2.2l-10.26-5.39c-0.61-0.32-1.33-0.32-1.94,0L12.77,44.9
		c-1.53,0.8-3.32-0.5-3.03-2.2l1.96-11.42c0.12-0.68-0.11-1.37-0.6-1.85l-8.3-8.09c-1.24-1.21-0.56-3.31,1.16-3.56l11.47-1.67
		c0.68-0.1,1.27-0.53,1.57-1.14l5.13-10.39C22.89,3.03,25.11,3.03,25.87,4.58z"/>
	<g class="st8">
		<path class="st6" d="M29.48,28.01c0,1.43-0.52,2.55-1.55,3.34c-1.03,0.8-2.26,1.2-3.66,1.2c-1.38,0-2.57-0.38-3.58-1.15
			c-1.01-0.77-1.51-1.84-1.51-3.22c0-0.91,0.29-1.74,0.86-2.5s1.39-1.37,2.45-1.82v-0.13c-1.59-0.98-2.39-2.2-2.39-3.65
			c0-1.16,0.43-2.06,1.28-2.69s1.87-0.95,3.04-0.95c1.15,0,2.14,0.3,2.98,0.91c0.84,0.6,1.26,1.43,1.26,2.48
			c0,0.72-0.22,1.41-0.67,2.07c-0.45,0.66-1.07,1.15-1.87,1.47v0.13C28.36,24.77,29.48,26.27,29.48,28.01z M27.55,28.32
			c0-1.46-1.2-2.77-3.6-3.94c-0.84,0.29-1.52,0.75-2.06,1.4s-0.81,1.35-0.81,2.11c0,1,0.32,1.77,0.97,2.3
			C22.7,30.74,23.47,31,24.37,31c0.86,0,1.6-0.24,2.24-0.72C27.23,29.81,27.55,29.15,27.55,28.32z M26.81,20.09
			c0-0.75-0.24-1.33-0.73-1.72c-0.48-0.4-1.06-0.6-1.74-0.6c-0.64,0-1.2,0.18-1.68,0.53s-0.72,0.83-0.72,1.43
			c0,1.25,0.92,2.32,2.75,3.19C26.1,22.3,26.81,21.35,26.81,20.09z"/>
	</g>
</g>
<g id="Calque_6" class="st0">
	<path class="st9" d="M25.78,5.49l4.89,9.91c0.29,0.59,0.85,0.99,1.5,1.09l10.94,1.59c1.63,0.24,2.28,2.24,1.1,3.39l-7.91,7.71
		c-0.47,0.46-0.68,1.12-0.57,1.76l1.87,10.89c0.28,1.63-1.43,2.87-2.89,2.1l-9.78-5.14c-0.58-0.3-1.27-0.3-1.85,0l-9.78,5.14
		c-1.46,0.77-3.17-0.47-2.89-2.1l1.87-10.89c0.11-0.65-0.1-1.3-0.57-1.76l-7.91-7.71c-1.18-1.15-0.53-3.16,1.1-3.39l10.94-1.59
		c0.65-0.09,1.21-0.5,1.5-1.09l4.89-9.91C22.95,4.01,25.05,4.01,25.78,5.49z"/>
	<g class="st8">
		<path class="st6" d="M28.47,18.05c0,1.37-0.54,3.25-1.61,5.65c-0.44,1-1.43,2.96-2.97,5.9c-1.06,2.04-1.59,3.3-1.59,3.79
			l-1.95-0.23c0-0.47,0.56-1.68,1.67-3.62c1.93-3.39,2.95-5.21,3.08-5.46c1.12-2.12,1.67-3.61,1.67-4.48c-1.59,0-4.01,0.1-7.25,0.29
			l0.07-1.83H28.47z"/>
	</g>
</g>
<g id="Calque_7" class="st0">
	<path class="st10" d="M25.67,6.72l4.57,9.26c0.27,0.55,0.79,0.93,1.4,1.02l10.22,1.49c1.53,0.22,2.14,2.1,1.03,3.17l-7.4,7.21
		c-0.44,0.43-0.64,1.04-0.54,1.65l1.75,10.18c0.26,1.52-1.33,2.68-2.7,1.96l-9.14-4.81c-0.54-0.28-1.19-0.28-1.73,0l-9.14,4.81
		c-1.36,0.72-2.96-0.44-2.7-1.96l1.75-10.18c0.1-0.6-0.1-1.22-0.54-1.65l-7.4-7.21c-1.1-1.08-0.49-2.95,1.03-3.17L16.36,17
		c0.61-0.09,1.13-0.47,1.4-1.02l4.57-9.26C23.01,5.34,24.99,5.34,25.67,6.72z"/>
	<g class="st8">
		<path class="st6" d="M28.91,27.25c0,1.25-0.4,2.33-1.21,3.25c-0.81,0.92-1.95,1.38-3.42,1.38c-1.26,0-2.34-0.48-3.23-1.45
			s-1.34-2.39-1.34-4.26c0-5.46,2.41-8.34,7.24-8.63l0.13,1.2c-1.83,0.19-3.18,0.72-4.04,1.61c-0.86,0.89-1.37,2.23-1.53,4.04h0.11
			c0.66-0.92,1.77-1.38,3.33-1.38c1.23,0,2.2,0.42,2.9,1.26C28.56,25.11,28.91,26.1,28.91,27.25z M27.11,27.55
			c0-0.88-0.27-1.64-0.81-2.28c-0.54-0.63-1.34-0.95-2.39-0.95c-0.99,0-1.79,0.4-2.41,1.21c0,1.77,0.27,3.05,0.8,3.83
			s1.21,1.17,2.01,1.17c0.87,0,1.55-0.29,2.05-0.89C26.86,29.07,27.11,28.37,27.11,27.55z"/>
	</g>
</g>
<g id="Calque_8" class="st0">
	<path class="st11" d="M25.55,7.98l4.24,8.6c0.25,0.51,0.74,0.86,1.3,0.94l9.49,1.38c1.42,0.21,1.98,1.95,0.96,2.94l-6.87,6.69
		c-0.41,0.4-0.59,0.97-0.5,1.53l1.62,9.45c0.24,1.41-1.24,2.49-2.51,1.82l-8.49-4.46c-0.5-0.26-1.1-0.26-1.61,0l-8.49,4.46
		c-1.27,0.67-2.75-0.41-2.51-1.82l1.62-9.45c0.1-0.56-0.09-1.13-0.5-1.53l-6.87-6.69c-1.02-1-0.46-2.74,0.96-2.94l9.49-1.38
		c0.56-0.08,1.05-0.43,1.3-0.94l4.24-8.6C23.09,6.7,24.91,6.7,25.55,7.98z"/>
	<g class="st8">
		<path class="st6" d="M27.37,27.56c0,1.32-0.64,2.49-1.93,3.52c-1.29,1.02-3.01,1.58-5.16,1.66l-0.27-1.13
			c1.77-0.11,3.15-0.49,4.15-1.14c1-0.65,1.5-1.48,1.5-2.47c0-1.08-0.41-1.83-1.22-2.26c-0.81-0.43-2.27-0.65-4.37-0.65
			c0.36-2.92,0.54-4.92,0.54-5.98h5.87l-0.06,1.53c-1.31-0.18-2.85-0.27-4.63-0.27c-0.17,1.22-0.26,2.37-0.26,3.44
			c1.97,0,3.44,0.3,4.4,0.9C26.89,25.29,27.37,26.24,27.37,27.56z"/>
	</g>
</g>
<g id="Calque_9" class="st0">
	<path class="st12" d="M25.43,9.19l3.93,7.96c0.23,0.47,0.68,0.8,1.2,0.87l8.79,1.28c1.31,0.19,1.83,1.8,0.89,2.73l-6.36,6.2
		c-0.38,0.37-0.55,0.9-0.46,1.42l1.5,8.75c0.22,1.31-1.15,2.3-2.32,1.69l-7.86-4.13c-0.47-0.24-1.02-0.24-1.49,0l-7.86,4.13
		c-1.17,0.62-2.54-0.38-2.32-1.69l1.5-8.75c0.09-0.52-0.08-1.05-0.46-1.42l-6.36-6.2c-0.95-0.92-0.43-2.54,0.89-2.73l8.79-1.28
		c0.52-0.08,0.97-0.4,1.2-0.87l3.93-7.96C23.15,8,24.85,8,25.43,9.19z"/>
	<g class="st8">
		<path class="st6" d="M28.15,26.09l-0.19,1.4h-1.54c0,1.1,0.04,2.54,0.11,4.31h-1.52c0.05-1.53,0.07-2.96,0.07-4.31h-5.03
			l-0.19-1.12c0-0.15,0.8-1.32,2.41-3.5c1.61-2.18,2.41-3.31,2.4-3.4h1.86c-0.07,1.34-0.11,3.58-0.11,6.72
			C26.96,26.19,27.54,26.16,28.15,26.09z M25.17,20.74H25.1c0,0.16-0.64,1.08-1.91,2.77c-1.27,1.68-1.91,2.57-1.91,2.67v0.07
			c1.04,0,2.31-0.02,3.8-0.06C25.08,24.35,25.12,22.53,25.17,20.74z"/>
	</g>
</g>
<g id="Calque_10" class="st0">
	<path class="st13" d="M25.3,10.59l3.56,7.22c0.21,0.43,0.62,0.72,1.09,0.79l7.97,1.16c1.19,0.17,1.66,1.63,0.8,2.47l-5.77,5.62
		c-0.34,0.33-0.5,0.81-0.42,1.28l1.36,7.94c0.2,1.18-1.04,2.09-2.1,1.53l-7.13-3.75c-0.42-0.22-0.93-0.22-1.35,0l-7.13,3.75
		c-1.06,0.56-2.31-0.34-2.1-1.53l1.36-7.94c0.08-0.47-0.08-0.95-0.42-1.28l-5.77-5.62c-0.86-0.84-0.39-2.3,0.8-2.47l7.97-1.16
		c0.47-0.07,0.88-0.37,1.09-0.79l3.56-7.22C23.23,9.52,24.77,9.52,25.3,10.59z"/>
	<g class="st8">
		<path class="st6" d="M26.74,27.22c0,1.09-0.54,2.07-1.63,2.95c-1.09,0.87-2.66,1.36-4.71,1.46l-0.23-0.99
			c1.63-0.11,2.9-0.43,3.82-0.98c0.91-0.54,1.37-1.26,1.37-2.16c0-0.83-0.34-1.42-1.02-1.76s-1.68-0.51-2.98-0.51l0.16-0.96
			c1.04,0,1.89-0.16,2.56-0.48c0.67-0.32,1-0.75,1-1.31c0-0.52-0.21-0.89-0.63-1.11c-0.42-0.22-1.07-0.33-1.95-0.33
			c-0.66,0-1.24,0.06-1.73,0.17l0.1-1.14c0.49-0.15,1.27-0.22,2.33-0.22c0.98,0,1.73,0.21,2.26,0.62c0.53,0.42,0.79,0.91,0.79,1.49
			c0,1.18-0.62,1.98-1.86,2.4v0.08c0.68,0.13,1.25,0.44,1.7,0.94C26.52,25.87,26.74,26.49,26.74,27.22z"/>
	</g>
</g>
<g id="Calque_11" class="st0">
	<path class="st14" d="M25.16,12.06l3.18,6.45c0.19,0.38,0.55,0.65,0.98,0.71l7.12,1.03c1.06,0.15,1.49,1.46,0.72,2.21L32,27.48
		c-0.31,0.3-0.44,0.73-0.37,1.15l1.22,7.09c0.18,1.06-0.93,1.86-1.88,1.37l-6.37-3.35c-0.38-0.2-0.83-0.2-1.21,0l-6.37,3.35
		c-0.95,0.5-2.06-0.31-1.88-1.37l1.22-7.09c0.07-0.42-0.07-0.85-0.37-1.15l-5.15-5.02c-0.77-0.75-0.34-2.05,0.72-2.21l7.12-1.03
		c0.42-0.06,0.79-0.33,0.98-0.71l3.18-6.45C23.31,11.09,24.69,11.09,25.16,12.06z"/>
	<g class="st8">
		<path class="st6" d="M26.88,27.71l-0.14,1.02h-5.23l0.14-0.97c1.24-0.86,2.12-1.57,2.62-2.14s0.76-1.24,0.76-1.99
			c0-1.01-0.68-1.52-2.03-1.52c-0.58,0-1.04,0.04-1.38,0.12l0.14-1.02c0.36-0.1,0.82-0.14,1.4-0.14c1.07,0,1.86,0.22,2.37,0.65
			c0.51,0.43,0.77,0.96,0.77,1.58c0,0.92-0.34,1.74-1.01,2.45c-0.67,0.71-1.49,1.38-2.46,2v0.06C24.2,27.8,25.55,27.77,26.88,27.71z
			"/>
	</g>
</g>
<g id="Calque_1" class="st0">
	<path class="st15" d="M25.06,13.09l2.91,5.91c0.17,0.35,0.51,0.59,0.89,0.65l6.52,0.95c0.97,0.14,1.36,1.34,0.66,2.02l-4.72,4.6
		c-0.28,0.27-0.41,0.66-0.34,1.05l1.11,6.49c0.17,0.97-0.85,1.71-1.72,1.25l-5.83-3.06c-0.35-0.18-0.76-0.18-1.1,0L17.62,36
		c-0.87,0.46-1.89-0.28-1.72-1.25l1.11-6.49c0.07-0.38-0.06-0.78-0.34-1.05l-4.72-4.6c-0.7-0.69-0.32-1.88,0.66-2.02l6.52-0.95
		c0.39-0.06,0.72-0.3,0.89-0.65l2.91-5.91C23.37,12.21,24.63,12.21,25.06,13.09z"/>
	<g class="st8">
		<path class="st6" d="M24.97,28.12h-1.13c0.05-0.93,0.07-1.89,0.07-2.89c0-1.16-0.02-2.01-0.07-2.56l-1.5,0.75l-0.31-0.57
			l2.38-1.75h0.57c-0.04,1.42-0.07,2.8-0.07,4.13C24.9,26.17,24.92,27.13,24.97,28.12z"/>
	</g>
</g>
</svg>
