<?xml version="1.0" encoding="utf-8"?>
<!-- Generator: Adobe Illustrator 26.0.0, SVG Export Plug-In . SVG Version: 6.00 Build 0)  -->
<svg version="1.1" id="Calque_1" xmlns="http://www.w3.org/2000/svg" xmlns:xlink="http://www.w3.org/1999/xlink" x="0px" y="0px"
	 viewBox="0 0 48 48" style="enable-background:new 0 0 48 48;" xml:space="preserve">
<style type="text/css">
	.st0{display:none;}
	.st1{display:inline;fill:#67AB55;}
	.st2{display:inline;fill:#FFFFFF;}
	.st3{font-family:'Candara';}
	.st4{font-size:26.1433px;}
	.st5{display:inline;fill:#78B24C;}
	.st6{font-size:25.1706px;}
	.st7{display:inline;fill:#88B843;}
	.st8{font-size:23.7796px;}
	.st9{display:inline;fill:#9ABF3A;}
	.st10{font-size:22.678px;}
	.st11{display:inline;fill:#ABC530;}
	.st12{font-size:21.1963px;}
	.st13{display:inline;fill:#BBCD2A;}
	.st14{font-size:19.6728px;}
	.st15{display:inline;fill:#CCD220;}
	.st16{font-size:18.2156px;}
	.st17{display:inline;fill:#DDD915;}
	.st18{font-size:16.5209px;}
	.st19{fill:#EEDF05;}
	.st20{fill:#1E1E1E;}
	.st21{display:inline;fill:#FFE606;}
	.st22{display:inline;}
</style>
<g id="Calque_3" class="st0">
	<path class="st1" d="M26.1,2.6l5.6,11.4c0.3,0.7,1,1.1,1.7,1.3L46,17.1c1.9,0.3,2.6,2.6,1.3,3.9l-9.1,8.9c-0.5,0.5-0.8,1.3-0.7,2
		l2.2,12.6c0.3,1.9-1.7,3.3-3.3,2.4L25.1,41c-0.7-0.3-1.5-0.3-2.1,0L11.7,47C10,47.8,8,46.4,8.3,44.5L10.5,32c0.1-0.7-0.1-1.5-0.7-2
		L0.7,21c-1.4-1.3-0.6-3.6,1.3-3.9l12.6-1.8c0.8-0.1,1.4-0.6,1.7-1.3l5.6-11.4C22.8,0.9,25.2,0.9,26.1,2.6z"/>
	<text transform="matrix(1 0 0 1 12.0586 32.5557)" class="st2 st3 st4">10</text>
</g>
<g id="Calque_4" class="st0">
	<path class="st5" d="M26,3.4l5.4,11c0.3,0.6,0.9,1.1,1.7,1.2l12.1,1.8c1.8,0.3,2.5,2.5,1.2,3.8l-8.8,8.6c-0.5,0.5-0.8,1.2-0.6,2
		l2.1,12.1c0.3,1.8-1.6,3.2-3.2,2.3L25,40.4c-0.6-0.3-1.4-0.3-2.1,0l-10.9,5.7c-1.6,0.8-3.5-0.5-3.2-2.3L11,31.7
		c0.1-0.7-0.1-1.5-0.6-2l-8.8-8.6c-1.3-1.3-0.6-3.5,1.2-3.8l12.1-1.8c0.7-0.1,1.3-0.6,1.7-1.2l5.4-11C22.8,1.8,25.2,1.8,26,3.4z"/>
	<text transform="matrix(1 0 0 1 17.4214 32.7754)" class="st2 st3 st6">9</text>
</g>
<g id="Calque_5" class="st0">
	<path class="st7" d="M25.9,4.6L31,15c0.3,0.6,0.9,1,1.6,1.1L44,17.8c1.7,0.2,2.4,2.4,1.2,3.6l-8.3,8.1c-0.5,0.5-0.7,1.2-0.6,1.9
		l2,11.4c0.3,1.7-1.5,3-3,2.2L25,39.5c-0.6-0.3-1.3-0.3-1.9,0l-10.3,5.4c-1.5,0.8-3.3-0.5-3-2.2l2-11.4c0.1-0.7-0.1-1.4-0.6-1.9
		l-8.3-8.1C1.6,20.1,2.2,18,4,17.8l11.5-1.7c0.7-0.1,1.3-0.5,1.6-1.1l5.1-10.4C22.9,3,25.1,3,25.9,4.6z"/>
	<text transform="matrix(1 0 0 1 17.7847 32.3057)" class="st2 st3 st8">8</text>
</g>
<g id="Calque_6" class="st0">
	<path class="st9" d="M25.8,5.5l4.9,9.9c0.3,0.6,0.9,1,1.5,1.1l10.9,1.6c1.6,0.2,2.3,2.2,1.1,3.4l-7.9,7.7c-0.5,0.5-0.7,1.1-0.6,1.8
		l1.9,10.9c0.3,1.6-1.4,2.9-2.9,2.1l-9.8-5.1c-0.6-0.3-1.3-0.3-1.9,0l-9.8,5.1c-1.5,0.8-3.2-0.5-2.9-2.1l1.9-10.9
		c0.1-0.6-0.1-1.3-0.6-1.8l-7.9-7.7c-1.2-1.1-0.5-3.2,1.1-3.4l10.9-1.6c0.6-0.1,1.2-0.5,1.5-1.1l4.9-9.9C23,4,25,4,25.8,5.5z"/>
	<text transform="matrix(1 0 0 1 18.0718 31.9346)" class="st2 st3 st10">7</text>
</g>
<g id="Calque_7" class="st0">
	<path class="st11" d="M25.7,6.7l4.6,9.3c0.3,0.5,0.8,0.9,1.4,1l10.2,1.5c1.5,0.2,2.1,2.1,1,3.2l-7.4,7.2c-0.4,0.4-0.6,1-0.5,1.6
		l1.8,10.2c0.3,1.5-1.3,2.7-2.7,2l-9.1-4.8c-0.5-0.3-1.2-0.3-1.7,0L14,42.7c-1.4,0.7-3-0.4-2.7-2L13,30.5c0.1-0.6-0.1-1.2-0.5-1.6
		l-7.4-7.2c-1.1-1.1-0.5-3,1-3.2L16.4,17c0.6-0.1,1.1-0.5,1.4-1l4.6-9.3C23,5.3,25,5.3,25.7,6.7z"/>
	<text transform="matrix(1 0 0 1 18.4595 31.4346)" class="st2 st3 st12">6</text>
</g>
<g id="Calque_8" class="st0">
	<path class="st13" d="M25.5,8l4.2,8.6c0.2,0.5,0.7,0.9,1.3,0.9l9.5,1.4c1.4,0.2,2,2,1,2.9l-6.9,6.7c-0.4,0.4-0.6,1-0.5,1.5l1.6,9.5
		c0.2,1.4-1.2,2.5-2.5,1.8l-8.5-4.5c-0.5-0.3-1.1-0.3-1.6,0l-8.5,4.5c-1.3,0.7-2.8-0.4-2.5-1.8l1.6-9.5c0.1-0.6-0.1-1.1-0.5-1.5
		l-6.9-6.7c-1-1-0.5-2.7,1-2.9l9.5-1.4c0.6-0.1,1-0.4,1.3-0.9L22.4,8C23.1,6.7,24.9,6.7,25.5,8z"/>
	<text transform="matrix(1 0 0 1 18.8579 29.2275)" class="st2 st3 st14">5</text>
</g>
<g id="Calque_9" class="st0">
	<path class="st15" d="M25.4,9.2l3.9,8c0.2,0.5,0.7,0.8,1.2,0.9l8.8,1.3c1.3,0.2,1.8,1.8,0.9,2.7l-6.4,6.2c-0.4,0.4-0.5,0.9-0.5,1.4
		l1.5,8.8c0.2,1.3-1.2,2.3-2.3,1.7L24.7,36c-0.5-0.2-1-0.2-1.5,0l-7.9,4.1c-1.2,0.6-2.5-0.4-2.3-1.7l1.5-8.8c0.1-0.5-0.1-1-0.5-1.4
		L7.8,22c-0.9-0.9-0.4-2.5,0.9-2.7l8.8-1.3c0.5-0.1,1-0.4,1.2-0.9l3.9-8C23.1,8,24.9,8,25.4,9.2z"/>
	<text transform="matrix(1 0 0 1 19.2378 28.8613)" class="st2 st3 st16">4</text>
</g>
<g id="Calque_10" class="st0">
	<path class="st17" d="M25.3,10.6l3.6,7.2c0.2,0.4,0.6,0.7,1.1,0.8l8,1.2c1.2,0.2,1.7,1.6,0.8,2.5l-5.8,5.6
		c-0.3,0.3-0.5,0.8-0.4,1.3l1.4,7.9c0.2,1.2-1,2.1-2.1,1.5l-7.1-3.8c-0.4-0.2-0.9-0.2-1.4,0l-7.1,3.8c-1.1,0.6-2.3-0.3-2.1-1.5
		l1.4-7.9c0.1-0.5-0.1-1-0.4-1.3l-5.8-5.6c-0.9-0.8-0.4-2.3,0.8-2.5l8-1.2c0.5-0.1,0.9-0.4,1.1-0.8l3.6-7.2
		C23.2,9.5,24.8,9.5,25.3,10.6z"/>
	<text transform="matrix(1 0 0 1 19.6812 28.4355)" class="st2 st3 st18">3</text>
</g>
<g id="Calque_11">
	<path class="st19" d="M25.7,6.3l4.7,9.5c0.3,0.6,0.8,1,1.4,1l10.5,1.5c1.6,0.2,2.2,2.1,1.1,3.2L35.8,29c-0.5,0.4-0.6,1.1-0.5,1.7
		L37,41.1c0.3,1.6-1.4,2.7-2.8,2l-9.4-4.9c-0.6-0.3-1.2-0.3-1.8,0l-9.4,4.9c-1.4,0.7-3-0.5-2.8-2l1.8-10.4c0.1-0.6-0.1-1.2-0.5-1.7
		l-7.6-7.4c-1.1-1.1-0.5-3,1.1-3.2l10.5-1.5c0.6-0.1,1.2-0.5,1.4-1l4.7-9.5C23,4.9,25,4.9,25.7,6.3z"/>
	<g>
		<path class="st20" d="M28.2,29.3L28,30.8h-7.7l0.2-1.4c1.8-1.3,3.1-2.3,3.8-3.1s1.1-1.8,1.1-2.9c0-1.5-1-2.2-3-2.2
			c-0.9,0-1.5,0.1-2,0.2l0.2-1.5c0.5-0.1,1.2-0.2,2.1-0.2c1.6,0,2.7,0.3,3.5,1c0.7,0.6,1.1,1.4,1.1,2.3c0,1.4-0.5,2.6-1.5,3.6
			c-1,1-2.2,2-3.6,2.9v0.1C24.3,29.4,26.3,29.4,28.2,29.3z"/>
	</g>
</g>
<g id="Calque_1_00000131328252365719371140000010206269480648931509_" class="st0">
	<path class="st21" d="M25.1,13.1L28,19c0.2,0.4,0.5,0.6,0.9,0.6l6.5,1c1,0.1,1.4,1.3,0.7,2l-4.7,4.6c-0.3,0.3-0.4,0.7-0.3,1
		l1.1,6.5c0.2,1-0.9,1.7-1.7,1.2L24.5,33c-0.4-0.2-0.8-0.2-1.1,0l-5.8,3c-0.9,0.5-1.9-0.3-1.7-1.2l1.1-6.5c0.1-0.4-0.1-0.8-0.3-1
		L12,22.6c-0.7-0.7-0.3-1.9,0.7-2l6.5-1c0.4-0.1,0.7-0.3,0.9-0.6l2.9-5.9C23.4,12.2,24.6,12.2,25.1,13.1z"/>
	<g class="st22">
		<path class="st20" d="M25,28.1h-1.1c0-0.9,0.1-1.9,0.1-2.9c0-1.2,0-2-0.1-2.6l-1.5,0.8L22,22.9l2.4-1.8H25c0,1.4-0.1,2.8-0.1,4.1
			C24.9,26.2,24.9,27.1,25,28.1z"/>
	</g>
</g>
</svg>
